<?xml version="1.0" encoding="UTF-8" standalone="no"?>
<svg xmlns="http://www.w3.org/2000/svg" xmlns:xlink="http://www.w3.org/1999/xlink" contentScriptType="application/ecmascript" contentStyleType="text/css" height="976px" preserveAspectRatio="none" style="width:819px;height:976px;" version="1.1" viewBox="0 0 819 976" width="819px" zoomAndPan="magnify"><defs><filter height="300%" id="fhwd1rh6qv3mc" width="300%" x="-1" y="-1"><feGaussianBlur result="blurOut" stdDeviation="2.0"/><feColorMatrix in="blurOut" result="blurOut2" type="matrix" values="0 0 0 0 0 0 0 0 0 0 0 0 0 0 0 0 0 0 .4 0"/><feOffset dx="4.0" dy="4.0" in="blurOut2" result="blurOut3"/><feBlend in="SourceGraphic" in2="blurOut3" mode="normal"/></filter></defs><g><polygon fill="#FFFFFF" filter="url(#fhwd1rh6qv3mc)" points="73,234,162,234,169,256.2969,176,256.2969,176,286.5938,73,286.5938,73,234" style="stroke: #000000; stroke-width: 1.5;"/><line style="stroke: #000000; stroke-width: 1.5;" x1="73" x2="169" y1="256.2969" y2="256.2969"/><text fill="#000000" font-family="sans-serif" font-size="14" font-weight="bold" lengthAdjust="spacingAndGlyphs" textLength="83" x="77" y="248.9951">silica_linux</text><polygon fill="#FFFFFF" filter="url(#fhwd1rh6qv3mc)" points="6,799,79,799,86,821.2969,93,821.2969,93,851.5938,6,851.5938,6,799" style="stroke: #000000; stroke-width: 1.5;"/><line style="stroke: #000000; stroke-width: 1.5;" x1="6" x2="86" y1="821.2969" y2="821.2969"/><text fill="#000000" font-family="sans-serif" font-size="14" font-weight="bold" lengthAdjust="spacingAndGlyphs" textLength="67" x="10" y="813.9951">silica_rpi</text><polygon fill="#FFFFFF" filter="url(#fhwd1rh6qv3mc)" points="319.5,8,451.5,8,458.5,30.2969,465.5,30.2969,465.5,60.5938,319.5,60.5938,319.5,8" style="stroke: #000000; stroke-width: 1.5;"/><line style="stroke: #000000; stroke-width: 1.5;" x1="319.5" x2="458.5" y1="30.2969" y2="30.2969"/><text fill="#000000" font-family="sans-serif" font-size="14" font-weight="bold" lengthAdjust="spacingAndGlyphs" textLength="126" x="323.5" y="22.9951">silica_core_sync</text><polygon fill="#FFFFFF" filter="url(#fhwd1rh6qv3mc)" points="501,8,664,8,671,30.2969,678,30.2969,678,60.5938,501,60.5938,501,8" style="stroke: #000000; stroke-width: 1.5;"/><line style="stroke: #000000; stroke-width: 1.5;" x1="501" x2="671" y1="30.2969" y2="30.2969"/><text fill="#000000" font-family="sans-serif" font-size="14" font-weight="bold" lengthAdjust="spacingAndGlyphs" textLength="157" x="505" y="22.9951">silica_core_allocator</text><polygon fill="#FFFFFF" filter="url(#fhwd1rh6qv3mc)" points="461,121,506,121,513,143.2969,520,143.2969,520,173.5938,461,173.5938,461,121" style="stroke: #000000; stroke-width: 1.5;"/><line style="stroke: #000000; stroke-width: 1.5;" x1="461" x2="513" y1="143.2969" y2="143.2969"/><text fill="#000000" font-family="sans-serif" font-size="14" font-weight="bold" lengthAdjust="spacingAndGlyphs" textLength="39" x="465" y="135.9951">silica</text><polygon fill="#FFFFFF" filter="url(#fhwd1rh6qv3mc)" points="274,234,391,234,398,256.2969,405,256.2969,405,286.5938,274,286.5938,274,234" style="stroke: #000000; stroke-width: 1.5;"/><line style="stroke: #000000; stroke-width: 1.5;" x1="274" x2="398" y1="256.2969" y2="256.2969"/><text fill="#000000" font-family="sans-serif" font-size="14" font-weight="bold" lengthAdjust="spacingAndGlyphs" textLength="111" x="278" y="248.9951">silica_cortexm</text><polygon fill="#FFFFFF" filter="url(#fhwd1rh6qv3mc)" points="98.5,347,232.5,347,239.5,369.2969,246.5,369.2969,246.5,399.5938,98.5,399.5938,98.5,347" style="stroke: #000000; stroke-width: 1.5;"/><line style="stroke: #000000; stroke-width: 1.5;" x1="98.5" x2="239.5" y1="369.2969" y2="369.2969"/><text fill="#000000" font-family="sans-serif" font-size="14" font-weight="bold" lengthAdjust="spacingAndGlyphs" textLength="128" x="102.5" y="361.9951">silica_cortexm_3</text><polygon fill="#FFFFFF" filter="url(#fhwd1rh6qv3mc)" points="283.5,347,417.5,347,424.5,369.2969,431.5,369.2969,431.5,399.5938,283.5,399.5938,283.5,347" style="stroke: #000000; stroke-width: 1.5;"/><line style="stroke: #000000; stroke-width: 1.5;" x1="283.5" x2="424.5" y1="369.2969" y2="369.2969"/><text fill="#000000" font-family="sans-serif" font-size="14" font-weight="bold" lengthAdjust="spacingAndGlyphs" textLength="128" x="287.5" y="361.9951">silica_cortexm_4</text><polygon fill="#FFFFFF" filter="url(#fhwd1rh6qv3mc)" points="106,460,223,460,230,482.2969,237,482.2969,237,512.5938,106,512.5938,106,460" style="stroke: #000000; stroke-width: 1.5;"/><line style="stroke: #000000; stroke-width: 1.5;" x1="106" x2="230" y1="482.2969" y2="482.2969"/><text fill="#000000" font-family="sans-serif" font-size="14" font-weight="bold" lengthAdjust="spacingAndGlyphs" textLength="111" x="110" y="474.9951">silica_stm32f2</text><polygon fill="#FFFFFF" filter="url(#fhwd1rh6qv3mc)" points="96.5,573,232.5,573,239.5,595.2969,246.5,595.2969,246.5,625.5938,96.5,625.5938,96.5,573" style="stroke: #000000; stroke-width: 1.5;"/><line style="stroke: #000000; stroke-width: 1.5;" x1="96.5" x2="239.5" y1="595.2969" y2="595.2969"/><text fill="#000000" font-family="sans-serif" font-size="14" font-weight="bold" lengthAdjust="spacingAndGlyphs" textLength="130" x="100.5" y="587.9951">silica_stm32f2x7</text><polygon fill="#FFFFFF" filter="url(#fhwd1rh6qv3mc)" points="102.5,686,258.5,686,265.5,708.2969,272.5,708.2969,272.5,738.5938,102.5,738.5938,102.5,686" style="stroke: #000000; stroke-width: 1.5;"/><line style="stroke: #000000; stroke-width: 1.5;" x1="102.5" x2="265.5" y1="708.2969" y2="708.2969"/><text fill="#000000" font-family="sans-serif" font-size="14" font-weight="bold" lengthAdjust="spacingAndGlyphs" textLength="150" x="106.5" y="700.9951">silica_stm32f207zg</text><polygon fill="#FFFFFF" filter="url(#fhwd1rh6qv3mc)" points="148,799,315,799,322,821.2969,329,821.2969,329,851.5938,148,851.5938,148,799" style="stroke: #000000; stroke-width: 1.5;"/><line style="stroke: #000000; stroke-width: 1.5;" x1="148" x2="322" y1="821.2969" y2="821.2969"/><text fill="#000000" font-family="sans-serif" font-size="14" font-weight="bold" lengthAdjust="spacingAndGlyphs" textLength="161" x="152" y="813.9951">silica_nucleo_f207zg</text><polygon fill="#FFFFFF" filter="url(#fhwd1rh6qv3mc)" points="291,460,410,460,417,482.2969,424,482.2969,424,512.5938,291,512.5938,291,460" style="stroke: #000000; stroke-width: 1.5;"/><line style="stroke: #000000; stroke-width: 1.5;" x1="291" x2="417" y1="482.2969" y2="482.2969"/><text fill="#000000" font-family="sans-serif" font-size="14" font-weight="bold" lengthAdjust="spacingAndGlyphs" textLength="113" x="295" y="474.9951">silica_atsam4e</text><polygon fill="#FFFFFF" filter="url(#fhwd1rh6qv3mc)" points="282,573,421,573,428,595.2969,435,595.2969,435,625.5938,282,625.5938,282,573" style="stroke: #000000; stroke-width: 1.5;"/><line style="stroke: #000000; stroke-width: 1.5;" x1="282" x2="428" y1="595.2969" y2="595.2969"/><text fill="#000000" font-family="sans-serif" font-size="14" font-weight="bold" lengthAdjust="spacingAndGlyphs" textLength="133" x="286" y="587.9951">silica_atsam4e8e</text><polygon fill="#FFFFFF" filter="url(#fhwd1rh6qv3mc)" points="440.5,234,526.5,234,533.5,256.2969,540.5,256.2969,540.5,286.5938,440.5,286.5938,440.5,234" style="stroke: #000000; stroke-width: 1.5;"/><line style="stroke: #000000; stroke-width: 1.5;" x1="440.5" x2="533.5" y1="256.2969" y2="256.2969"/><text fill="#000000" font-family="sans-serif" font-size="14" font-weight="bold" lengthAdjust="spacingAndGlyphs" textLength="80" x="444.5" y="248.9951">silica_l106</text><polygon fill="#FFFFFF" filter="url(#fhwd1rh6qv3mc)" points="470,573,591,573,598,595.2969,605,595.2969,605,625.5938,470,625.5938,470,573" style="stroke: #000000; stroke-width: 1.5;"/><line style="stroke: #000000; stroke-width: 1.5;" x1="470" x2="598" y1="595.2969" y2="595.2969"/><text fill="#000000" font-family="sans-serif" font-size="14" font-weight="bold" lengthAdjust="spacingAndGlyphs" textLength="115" x="474" y="587.9951">silica_esp8266</text><polygon fill="#FFFFFF" filter="url(#fhwd1rh6qv3mc)" points="310.5,686,398.5,686,405.5,708.2969,412.5,708.2969,412.5,738.5938,310.5,738.5938,310.5,686" style="stroke: #000000; stroke-width: 1.5;"/><line style="stroke: #000000; stroke-width: 1.5;" x1="310.5" x2="405.5" y1="708.2969" y2="708.2969"/><text fill="#000000" font-family="sans-serif" font-size="14" font-weight="bold" lengthAdjust="spacingAndGlyphs" textLength="82" x="314.5" y="700.9951">silica_duet</text><polygon fill="#FFFFFF" filter="url(#fhwd1rh6qv3mc)" points="576,234,721,234,728,256.2969,735,256.2969,735,286.5938,576,286.5938,576,234" style="stroke: #000000; stroke-width: 1.5;"/><line style="stroke: #000000; stroke-width: 1.5;" x1="576" x2="728" y1="256.2969" y2="256.2969"/><text fill="#000000" font-family="sans-serif" font-size="14" font-weight="bold" lengthAdjust="spacingAndGlyphs" textLength="139" x="580" y="248.9951">silica_atmel_mega</text><polygon fill="#FFFFFF" filter="url(#fhwd1rh6qv3mc)" points="548.5,347,740.5,347,747.5,369.2969,754.5,369.2969,754.5,399.5938,548.5,399.5938,548.5,347" style="stroke: #000000; stroke-width: 1.5;"/><line style="stroke: #000000; stroke-width: 1.5;" x1="548.5" x2="747.5" y1="369.2969" y2="369.2969"/><text fill="#000000" font-family="sans-serif" font-size="14" font-weight="bold" lengthAdjust="spacingAndGlyphs" textLength="186" x="552.5" y="361.9951">silica_atmel_mega_2560</text><polygon fill="#FFFFFF" filter="url(#fhwd1rh6qv3mc)" points="532.5,686,734.5,686,741.5,708.2969,748.5,708.2969,748.5,738.5938,532.5,738.5938,532.5,686" style="stroke: #000000; stroke-width: 1.5;"/><line style="stroke: #000000; stroke-width: 1.5;" x1="532.5" x2="741.5" y1="708.2969" y2="708.2969"/><text fill="#000000" font-family="sans-serif" font-size="14" font-weight="bold" lengthAdjust="spacingAndGlyphs" textLength="196" x="536.5" y="700.9951">silica_arduino_mega2560</text><polygon fill="#FFFFFF" filter="url(#fhwd1rh6qv3mc)" points="349,912,498,912,505,934.2969,512,934.2969,512,964.5938,349,964.5938,349,912" style="stroke: #000000; stroke-width: 1.5;"/><line style="stroke: #000000; stroke-width: 1.5;" x1="349" x2="505" y1="934.2969" y2="934.2969"/><text fill="#000000" font-family="sans-serif" font-size="14" font-weight="bold" lengthAdjust="spacingAndGlyphs" textLength="143" x="353" y="926.9951">silica_demo_blinky</text><!--link silica_core_allocator to silica--><path d="M563.091,65.11 C547.584,82.497 528.181,104.252 513.337,120.895 " fill="none" id="silica_core_allocator-silica" style="stroke: #A80036; stroke-width: 1.0;"/><polygon fill="#A80036" points="566.539,61.245,557.563,65.2985,563.2106,64.9762,563.5329,70.6239,566.539,61.245" style="stroke: #A80036; stroke-width: 1.0;"/><!--link silica_core_sync to silica--><path d="M418.643,65.11 C433.993,82.497 453.2,104.252 467.894,120.895 " fill="none" id="silica_core_sync-silica" style="stroke: #A80036; stroke-width: 1.0;"/><polygon fill="#A80036" points="415.229,61.245,418.1857,70.6396,418.5377,64.9937,424.1836,65.3457,415.229,61.245" style="stroke: #A80036; stroke-width: 1.0;"/><!--link silica to silica_cortexm--><path d="M456.501,173.493 C431.983,191.515 398.996,215.764 374.298,233.92 " fill="none" id="silica-silica_cortexm" style="stroke: #A80036; stroke-width: 1.0;"/><polygon fill="#A80036" points="460.667,170.43,451.046,172.5361,456.6379,173.3908,455.7832,178.9827,460.667,170.43" style="stroke: #A80036; stroke-width: 1.0;"/><!--link silica to silica_linux--><path d="M455.963,158.974 C391.348,178.571 251.878,220.869 176.078,243.857 " fill="none" id="silica-silica_linux" style="stroke: #A80036; stroke-width: 1.0;"/><polygon fill="#A80036" points="460.859,157.49,451.0854,156.275,456.0743,158.9415,453.4078,163.9305,460.859,157.49" style="stroke: #A80036; stroke-width: 1.0;"/><!--link silica to silica_l106--><path d="M490.5,179.434 C490.5,196.591 490.5,217.672 490.5,233.895 " fill="none" id="silica-silica_l106" style="stroke: #A80036; stroke-width: 1.0;"/><polygon fill="#A80036" points="490.5,174.245,486.5,183.245,490.5,179.245,494.5,183.245,490.5,174.245" style="stroke: #A80036; stroke-width: 1.0;"/><!--link silica_linux to silica_rpi--><path d="M105.9439,291.726 C82.032,333.63 43.5,412.484 43.5,485.5 C43.5,485.5 43.5,485.5 43.5,600.5 C43.5,672.47 46.6334,757.401 48.3714,798.975 " fill="none" id="silica_linux-silica_rpi" style="stroke: #A80036; stroke-width: 1.0;"/><polygon fill="#A80036" points="108.497,287.294,100.5369,293.0937,106,291.6258,107.4678,297.0889,108.497,287.294" style="stroke: #A80036; stroke-width: 1.0;"/><!--link silica_cortexm to silica_cortexm_3--><path d="M296.591,290.02 C270.172,307.581 236.588,329.902 211.023,346.895 " fill="none" id="silica_cortexm-silica_cortexm_3" style="stroke: #A80036; stroke-width: 1.0;"/><polygon fill="#A80036" points="300.767,287.245,291.0576,288.8968,296.6032,290.0132,295.4868,295.5588,300.767,287.245" style="stroke: #A80036; stroke-width: 1.0;"/><!--link silica_cortexm to silica_cortexm_4--><path d="M344.516,292.434 C347.298,309.591 350.717,330.672 353.348,346.895 " fill="none" id="silica_cortexm-silica_cortexm_4" style="stroke: #A80036; stroke-width: 1.0;"/><polygon fill="#A80036" points="343.675,287.245,341.1665,296.769,344.475,292.1806,349.0634,295.4891,343.675,287.245" style="stroke: #A80036; stroke-width: 1.0;"/><!--link silica_cortexm_3 to silica_stm32f2--><path d="M172.221,405.434 C172.067,422.591 171.877,443.672 171.731,459.895 " fill="none" id="silica_cortexm_3-silica_stm32f2" style="stroke: #A80036; stroke-width: 1.0;"/><polygon fill="#A80036" points="172.268,400.245,168.1884,409.2092,172.2237,405.2448,176.1881,409.2801,172.268,400.245" style="stroke: #A80036; stroke-width: 1.0;"/><!--link silica_cortexm_4 to silica_atsam4e--><path d="M357.5,405.434 C357.5,422.591 357.5,443.672 357.5,459.895 " fill="none" id="silica_cortexm_4-silica_atsam4e" style="stroke: #A80036; stroke-width: 1.0;"/><polygon fill="#A80036" points="357.5,400.245,353.5,409.245,357.5,405.245,361.5,409.245,357.5,400.245" style="stroke: #A80036; stroke-width: 1.0;"/><!--link silica_stm32f2 to silica_stm32f2x7--><path d="M171.5,518.434 C171.5,535.591 171.5,556.672 171.5,572.895 " fill="none" id="silica_stm32f2-silica_stm32f2x7" style="stroke: #A80036; stroke-width: 1.0;"/><polygon fill="#A80036" points="171.5,513.245,167.5,522.245,171.5,518.245,175.5,522.245,171.5,513.245" style="stroke: #A80036; stroke-width: 1.0;"/><!--link silica_stm32f2x7 to silica_stm32f207zg--><path d="M175.959,631.434 C178.432,648.591 181.471,669.672 183.809,685.895 " fill="none" id="silica_stm32f2x7-silica_stm32f207zg" style="stroke: #A80036; stroke-width: 1.0;"/><polygon fill="#A80036" points="175.211,626.245,172.5351,635.7234,175.9239,631.1939,180.4534,634.5827,175.211,626.245" style="stroke: #A80036; stroke-width: 1.0;"/><!--link silica_stm32f207zg to silica_nucleo_f207zg--><path d="M201.509,743.991 C209.428,761.227 219.217,782.532 226.736,798.895 " fill="none" id="silica_stm32f207zg-silica_nucleo_f207zg" style="stroke: #A80036; stroke-width: 1.0;"/><polygon fill="#A80036" points="199.329,739.245,199.4541,749.0931,201.4176,743.7879,206.7228,745.7513,199.329,739.245" style="stroke: #A80036; stroke-width: 1.0;"/><!--link silica_atsam4e to silica_atsam4e8e--><path d="M357.779,518.434 C357.933,535.591 358.123,556.672 358.269,572.895 " fill="none" id="silica_atsam4e-silica_atsam4e8e" style="stroke: #A80036; stroke-width: 1.0;"/><polygon fill="#A80036" points="357.732,513.245,353.8119,522.2801,357.7763,518.2448,361.8116,522.2092,357.732,513.245" style="stroke: #A80036; stroke-width: 1.0;"/><!--link silica_atsam4e8e to silica_duet--><path d="M359.336,631.434 C359.8,648.591 360.37,669.672 360.808,685.895 " fill="none" id="silica_atsam4e8e-silica_duet" style="stroke: #A80036; stroke-width: 1.0;"/><polygon fill="#A80036" points="359.196,626.245,355.4418,635.3503,359.3317,631.2432,363.4389,635.1331,359.196,626.245" style="stroke: #A80036; stroke-width: 1.0;"/><!--link silica_l106 to silica_esp8266--><path d="M494.763,292.066 C503.94,357.864 525.421,511.894 533.934,572.933 " fill="none" id="silica_l106-silica_esp8266" style="stroke: #A80036; stroke-width: 1.0;"/><polygon fill="#A80036" points="494.071,287.106,491.3515,296.5719,494.7611,292.0581,499.2749,295.4678,494.071,287.106" style="stroke: #A80036; stroke-width: 1.0;"/><!--link silica to silica_atmel_mega--><path d="M524.624,171.456 C551.657,189.642 589.407,215.037 617.42,233.882 " fill="none" id="silica-silica_atmel_mega" style="stroke: #A80036; stroke-width: 1.0;"/><polygon fill="#A80036" points="520.38,168.601,525.614,176.944,524.5283,171.3923,530.08,170.3066,520.38,168.601" style="stroke: #A80036; stroke-width: 1.0;"/><!--link silica_atmel_mega to silica_atmel_mega_2560--><path d="M654.385,292.434 C653.767,309.591 653.007,330.672 652.423,346.895 " fill="none" id="silica_atmel_mega-silica_atmel_mega_2560" style="stroke: #A80036; stroke-width: 1.0;"/><polygon fill="#A80036" points="654.572,287.245,650.2506,296.0952,654.392,292.2418,658.2454,296.3832,654.572,287.245" style="stroke: #A80036; stroke-width: 1.0;"/><!--link silica_atmel_mega_2560 to silica_arduino_mega2560--><path d="M650.489,405.463 C648.334,471.481 643.323,625.016 641.335,685.933 " fill="none" id="silica_atmel_mega_2560-silica_arduino_mega2560" style="stroke: #A80036; stroke-width: 1.0;"/><polygon fill="#A80036" points="650.664,400.106,646.373,408.9709,650.5011,405.1033,654.3687,409.2315,650.664,400.106" style="stroke: #A80036; stroke-width: 1.0;"/><!--link silica to silica_demo_blinky--><path d="M525.297,150.635 C580.417,155.821 688.14,173.546 752.5,234 C800.775,279.345 807.5,306.268 807.5,372.5 C807.5,372.5 807.5,372.5 807.5,713.5 C807.5,849.778 623.182,904.9949 512.303,925.8823 " fill="none" id="silica-silica_demo_blinky" style="stroke: #A80036; stroke-width: 1.0;"/><polygon fill="#A80036" points="520.13,150.172,528.7362,154.9608,525.11,150.6191,529.4517,146.9929,520.13,150.172" style="stroke: #A80036; stroke-width: 1.0;"/><!--link silica_nucleo_f207zg to silica_demo_blinky--><path d="M287.458,854.804 C317.889,872.3967 356.697,894.8325 386.21,911.895 " fill="none" id="silica_nucleo_f207zg-silica_demo_blinky" style="stroke: #A80036; stroke-width: 1.0; stroke-dasharray: 7.0,7.0;"/><polygon fill="#A80036" points="283.031,852.245,288.82,860.2129,287.3595,854.7478,292.8246,853.2873,283.031,852.245" style="stroke: #A80036; stroke-width: 1.0;"/><!--link silica_duet to silica_demo_blinky--><path d="M370.947,744.167 C384.645,788.639 409.78,870.2367 422.571,911.76 " fill="none" id="silica_duet-silica_demo_blinky" style="stroke: #A80036; stroke-width: 1.0; stroke-dasharray: 7.0,7.0;"/><polygon fill="#A80036" points="369.415,739.196,368.2407,748.9746,370.8864,743.9746,375.8864,746.6203,369.415,739.196" style="stroke: #A80036; stroke-width: 1.0;"/><!--link silica_esp8266 to silica_demo_blinky--><path d="M527.795,631.066 C506.904,696.864 457.998,850.894 438.618,911.9326 " fill="none" id="silica_esp8266-silica_demo_blinky" style="stroke: #A80036; stroke-width: 1.0; stroke-dasharray: 7.0,7.0;"/><polygon fill="#A80036" points="529.37,626.106,522.8324,633.4721,527.8559,630.8712,530.4567,635.8947,529.37,626.106" style="stroke: #A80036; stroke-width: 1.0;"/><!--link silica_rpi to silica_demo_blinky--><path d="M98.0145,842.011 C108.698,845.36 119.968,848.842 130.5,852 C204.163,874.0876 288.41,897.9783 348.834,914.8758 " fill="none" id="silica_rpi-silica_demo_blinky" style="stroke: #A80036; stroke-width: 1.0; stroke-dasharray: 7.0,7.0;"/><polygon fill="#A80036" points="93.1515,840.483,100.5385,846.997,97.9216,841.9819,102.9367,839.3649,93.1515,840.483" style="stroke: #A80036; stroke-width: 1.0;"/><!--link silica_arduino_mega2560 to silica_demo_blinky--><path d="M612.757,743.092 C571.301,787.312 493.875,869.8998 454.631,911.76 " fill="none" id="silica_arduino_mega2560-silica_demo_blinky" style="stroke: #A80036; stroke-width: 1.0; stroke-dasharray: 7.0,7.0;"/><polygon fill="#A80036" points="616.41,739.196,607.3359,743.025,612.9899,742.8433,613.1716,748.4972,616.41,739.196" style="stroke: #A80036; stroke-width: 1.0;"/><!--
@startuml
package silica_linux {}
package silica_rpi {}
package silica_core_sync {}
package silica_core_allocator {}
package silica {}
package silica_cortexm {}
package silica_cortexm_3 {}
package silica_cortexm_4 {}
package silica_stm32f2 {}
package silica_stm32f2x7 {}
package silica_stm32f207zg {}
package silica_nucleo_f207zg {}
package silica_atsam4e {}
package silica_atsam4e8e {}
package silica_l106 {}
package silica_esp8266 {}
package silica_duet {}
package silica_atmel_mega {}
package silica_atmel_mega_2560 {}
package silica_arduino_mega2560 {}


silica_core_allocator <- - silica
silica_core_sync <- - silica

silica <- - silica_cortexm
silica <- - silica_linux
silica <- - silica_l106

silica_linux <- - silica_rpi

silica_cortexm <- - silica_cortexm_3
silica_cortexm <- - silica_cortexm_4

silica_cortexm_3 <- - silica_stm32f2

silica_cortexm_4 <- - silica_atsam4e

silica_stm32f2 <- - silica_stm32f2x7
silica_stm32f2x7 <- - silica_stm32f207zg
silica_stm32f207zg <- - silica_nucleo_f207zg

silica_atsam4e <- - silica_atsam4e8e
silica_atsam4e8e <- - silica_duet

silica_l106 <- - silica_esp8266

silica <- - silica_atmel_mega
silica_atmel_mega <- - silica_atmel_mega_2560
silica_atmel_mega_2560 <- - silica_arduino_mega2560

package silica_demo_blinky {}
silica <- - silica_demo_blinky
silica_nucleo_f207zg <.. silica_demo_blinky
silica_duet <.. silica_demo_blinky
silica_esp8266 <.. silica_demo_blinky
silica_rpi <.. silica_demo_blinky
silica_arduino_mega2560 <.. silica_demo_blinky
@enduml

PlantUML version 1.2018.02(Fri Mar 09 17:20:44 UTC 2018)
(GPL source distribution)
Java Runtime: Java(TM) SE Runtime Environment
JVM: Java HotSpot(TM) 64-Bit Server VM
Java Version: 1.7.0_25-b15
Operating System: Linux
Default Encoding: UTF-8
Language: en
Country: US
--></g></svg>