<?xml version="1.0" encoding="UTF-8" standalone="no"?>
<svg xmlns="http://www.w3.org/2000/svg" xmlns:xlink="http://www.w3.org/1999/xlink" contentScriptType="application/ecmascript" contentStyleType="text/css" height="976px" preserveAspectRatio="none" style="width:644px;height:976px;" version="1.1" viewBox="0 0 644 976" width="644px" zoomAndPan="magnify"><defs><filter height="300%" id="f7lnblae3kz5w" width="300%" x="-1" y="-1"><feGaussianBlur result="blurOut" stdDeviation="2.0"/><feColorMatrix in="blurOut" result="blurOut2" type="matrix" values="0 0 0 0 0 0 0 0 0 0 0 0 0 0 0 0 0 0 .4 0"/><feOffset dx="4.0" dy="4.0" in="blurOut2" result="blurOut3"/><feBlend in="SourceGraphic" in2="blurOut3" mode="normal"/></filter></defs><g><polygon fill="#FFFFFF" filter="url(#f7lnblae3kz5w)" points="76,234,165,234,172,256.2969,179,256.2969,179,286.5938,76,286.5938,76,234" style="stroke: #000000; stroke-width: 1.5;"/><line style="stroke: #000000; stroke-width: 1.5;" x1="76" x2="172" y1="256.2969" y2="256.2969"/><text fill="#000000" font-family="sans-serif" font-size="14" font-weight="bold" lengthAdjust="spacingAndGlyphs" textLength="83" x="80" y="248.9951">silica_linux</text><polygon fill="#FFFFFF" filter="url(#f7lnblae3kz5w)" points="6,799,79,799,86,821.2969,93,821.2969,93,851.5938,6,851.5938,6,799" style="stroke: #000000; stroke-width: 1.5;"/><line style="stroke: #000000; stroke-width: 1.5;" x1="6" x2="86" y1="821.2969" y2="821.2969"/><text fill="#000000" font-family="sans-serif" font-size="14" font-weight="bold" lengthAdjust="spacingAndGlyphs" textLength="67" x="10" y="813.9951">silica_rpi</text><polygon fill="#FFFFFF" filter="url(#f7lnblae3kz5w)" points="263.5,8,395.5,8,402.5,30.2969,409.5,30.2969,409.5,60.5938,263.5,60.5938,263.5,8" style="stroke: #000000; stroke-width: 1.5;"/><line style="stroke: #000000; stroke-width: 1.5;" x1="263.5" x2="402.5" y1="30.2969" y2="30.2969"/><text fill="#000000" font-family="sans-serif" font-size="14" font-weight="bold" lengthAdjust="spacingAndGlyphs" textLength="126" x="267.5" y="22.9951">silica_core_sync</text><polygon fill="#FFFFFF" filter="url(#f7lnblae3kz5w)" points="445,8,608,8,615,30.2969,622,30.2969,622,60.5938,445,60.5938,445,8" style="stroke: #000000; stroke-width: 1.5;"/><line style="stroke: #000000; stroke-width: 1.5;" x1="445" x2="615" y1="30.2969" y2="30.2969"/><text fill="#000000" font-family="sans-serif" font-size="14" font-weight="bold" lengthAdjust="spacingAndGlyphs" textLength="157" x="449" y="22.9951">silica_core_allocator</text><polygon fill="#FFFFFF" filter="url(#f7lnblae3kz5w)" points="405,121,450,121,457,143.2969,464,143.2969,464,173.5938,405,173.5938,405,121" style="stroke: #000000; stroke-width: 1.5;"/><line style="stroke: #000000; stroke-width: 1.5;" x1="405" x2="457" y1="143.2969" y2="143.2969"/><text fill="#000000" font-family="sans-serif" font-size="14" font-weight="bold" lengthAdjust="spacingAndGlyphs" textLength="39" x="409" y="135.9951">silica</text><polygon fill="#FFFFFF" filter="url(#f7lnblae3kz5w)" points="293,234,410,234,417,256.2969,424,256.2969,424,286.5938,293,286.5938,293,234" style="stroke: #000000; stroke-width: 1.5;"/><line style="stroke: #000000; stroke-width: 1.5;" x1="293" x2="417" y1="256.2969" y2="256.2969"/><text fill="#000000" font-family="sans-serif" font-size="14" font-weight="bold" lengthAdjust="spacingAndGlyphs" textLength="111" x="297" y="248.9951">silica_cortexm</text><polygon fill="#FFFFFF" filter="url(#f7lnblae3kz5w)" points="101.5,347,235.5,347,242.5,369.2969,249.5,369.2969,249.5,399.5938,101.5,399.5938,101.5,347" style="stroke: #000000; stroke-width: 1.5;"/><line style="stroke: #000000; stroke-width: 1.5;" x1="101.5" x2="242.5" y1="369.2969" y2="369.2969"/><text fill="#000000" font-family="sans-serif" font-size="14" font-weight="bold" lengthAdjust="spacingAndGlyphs" textLength="128" x="105.5" y="361.9951">silica_cortexm_3</text><polygon fill="#FFFFFF" filter="url(#f7lnblae3kz5w)" points="284.5,347,418.5,347,425.5,369.2969,432.5,369.2969,432.5,399.5938,284.5,399.5938,284.5,347" style="stroke: #000000; stroke-width: 1.5;"/><line style="stroke: #000000; stroke-width: 1.5;" x1="284.5" x2="425.5" y1="369.2969" y2="369.2969"/><text fill="#000000" font-family="sans-serif" font-size="14" font-weight="bold" lengthAdjust="spacingAndGlyphs" textLength="128" x="288.5" y="361.9951">silica_cortexm_4</text><polygon fill="#FFFFFF" filter="url(#f7lnblae3kz5w)" points="109,460,226,460,233,482.2969,240,482.2969,240,512.5938,109,512.5938,109,460" style="stroke: #000000; stroke-width: 1.5;"/><line style="stroke: #000000; stroke-width: 1.5;" x1="109" x2="233" y1="482.2969" y2="482.2969"/><text fill="#000000" font-family="sans-serif" font-size="14" font-weight="bold" lengthAdjust="spacingAndGlyphs" textLength="111" x="113" y="474.9951">silica_stm32f2</text><polygon fill="#FFFFFF" filter="url(#f7lnblae3kz5w)" points="101.5,573,237.5,573,244.5,595.2969,251.5,595.2969,251.5,625.5938,101.5,625.5938,101.5,573" style="stroke: #000000; stroke-width: 1.5;"/><line style="stroke: #000000; stroke-width: 1.5;" x1="101.5" x2="244.5" y1="595.2969" y2="595.2969"/><text fill="#000000" font-family="sans-serif" font-size="14" font-weight="bold" lengthAdjust="spacingAndGlyphs" textLength="130" x="105.5" y="587.9951">silica_stm32f2x7</text><polygon fill="#FFFFFF" filter="url(#f7lnblae3kz5w)" points="104.5,686,260.5,686,267.5,708.2969,274.5,708.2969,274.5,738.5938,104.5,738.5938,104.5,686" style="stroke: #000000; stroke-width: 1.5;"/><line style="stroke: #000000; stroke-width: 1.5;" x1="104.5" x2="267.5" y1="708.2969" y2="708.2969"/><text fill="#000000" font-family="sans-serif" font-size="14" font-weight="bold" lengthAdjust="spacingAndGlyphs" textLength="150" x="108.5" y="700.9951">silica_stm32f207zg</text><polygon fill="#FFFFFF" filter="url(#f7lnblae3kz5w)" points="129,799,296,799,303,821.2969,310,821.2969,310,851.5938,129,851.5938,129,799" style="stroke: #000000; stroke-width: 1.5;"/><line style="stroke: #000000; stroke-width: 1.5;" x1="129" x2="303" y1="821.2969" y2="821.2969"/><text fill="#000000" font-family="sans-serif" font-size="14" font-weight="bold" lengthAdjust="spacingAndGlyphs" textLength="161" x="133" y="813.9951">silica_nucleo_f207zg</text><polygon fill="#FFFFFF" filter="url(#f7lnblae3kz5w)" points="275,460,394,460,401,482.2969,408,482.2969,408,512.5938,275,512.5938,275,460" style="stroke: #000000; stroke-width: 1.5;"/><line style="stroke: #000000; stroke-width: 1.5;" x1="275" x2="401" y1="482.2969" y2="482.2969"/><text fill="#000000" font-family="sans-serif" font-size="14" font-weight="bold" lengthAdjust="spacingAndGlyphs" textLength="113" x="279" y="474.9951">silica_atsam4e</text><polygon fill="#FFFFFF" filter="url(#f7lnblae3kz5w)" points="287,573,426,573,433,595.2969,440,595.2969,440,625.5938,287,625.5938,287,573" style="stroke: #000000; stroke-width: 1.5;"/><line style="stroke: #000000; stroke-width: 1.5;" x1="287" x2="433" y1="595.2969" y2="595.2969"/><text fill="#000000" font-family="sans-serif" font-size="14" font-weight="bold" lengthAdjust="spacingAndGlyphs" textLength="133" x="291" y="587.9951">silica_atsam4e8e</text><polygon fill="#FFFFFF" filter="url(#f7lnblae3kz5w)" points="460.5,234,546.5,234,553.5,256.2969,560.5,256.2969,560.5,286.5938,460.5,286.5938,460.5,234" style="stroke: #000000; stroke-width: 1.5;"/><line style="stroke: #000000; stroke-width: 1.5;" x1="460.5" x2="553.5" y1="256.2969" y2="256.2969"/><text fill="#000000" font-family="sans-serif" font-size="14" font-weight="bold" lengthAdjust="spacingAndGlyphs" textLength="80" x="464.5" y="248.9951">silica_l106</text><polygon fill="#FFFFFF" filter="url(#f7lnblae3kz5w)" points="443,460,564,460,571,482.2969,578,482.2969,578,512.5938,443,512.5938,443,460" style="stroke: #000000; stroke-width: 1.5;"/><line style="stroke: #000000; stroke-width: 1.5;" x1="443" x2="571" y1="482.2969" y2="482.2969"/><text fill="#000000" font-family="sans-serif" font-size="14" font-weight="bold" lengthAdjust="spacingAndGlyphs" textLength="115" x="447" y="474.9951">silica_esp8266</text><polygon fill="#FFFFFF" filter="url(#f7lnblae3kz5w)" points="312.5,686,400.5,686,407.5,708.2969,414.5,708.2969,414.5,738.5938,312.5,738.5938,312.5,686" style="stroke: #000000; stroke-width: 1.5;"/><line style="stroke: #000000; stroke-width: 1.5;" x1="312.5" x2="407.5" y1="708.2969" y2="708.2969"/><text fill="#000000" font-family="sans-serif" font-size="14" font-weight="bold" lengthAdjust="spacingAndGlyphs" textLength="82" x="316.5" y="700.9951">silica_duet</text><polygon fill="#FFFFFF" filter="url(#f7lnblae3kz5w)" points="282,912,431,912,438,934.2969,445,934.2969,445,964.5938,282,964.5938,282,912" style="stroke: #000000; stroke-width: 1.5;"/><line style="stroke: #000000; stroke-width: 1.5;" x1="282" x2="438" y1="934.2969" y2="934.2969"/><text fill="#000000" font-family="sans-serif" font-size="14" font-weight="bold" lengthAdjust="spacingAndGlyphs" textLength="143" x="286" y="926.9951">silica_demo_blinky</text><!--link silica_core_allocator to silica--><path d="M507.091,65.11 C491.584,82.497 472.181,104.252 457.337,120.895 " fill="none" id="silica_core_allocator-silica" style="stroke: #A80036; stroke-width: 1.0;"/><polygon fill="#A80036" points="510.539,61.245,501.563,65.2985,507.2106,64.9762,507.5329,70.6239,510.539,61.245" style="stroke: #A80036; stroke-width: 1.0;"/><!--link silica_core_sync to silica--><path d="M362.643,65.11 C377.993,82.497 397.2,104.252 411.894,120.895 " fill="none" id="silica_core_sync-silica" style="stroke: #A80036; stroke-width: 1.0;"/><polygon fill="#A80036" points="359.229,61.245,362.1857,70.6396,362.5377,64.9937,368.1836,65.3457,359.229,61.245" style="stroke: #A80036; stroke-width: 1.0;"/><!--link silica to silica_cortexm--><path d="M413.925,178.55 C402.072,195.862 387.331,217.392 376.031,233.895 " fill="none" id="silica-silica_cortexm" style="stroke: #A80036; stroke-width: 1.0;"/><polygon fill="#A80036" points="416.873,174.245,408.4884,179.4121,414.0486,178.3709,415.0898,183.9311,416.873,174.245" style="stroke: #A80036; stroke-width: 1.0;"/><!--link silica to silica_linux--><path d="M400.052,160.955 C346.231,180.415 241.871,218.148 179.063,240.857 " fill="none" id="silica-silica_linux" style="stroke: #A80036; stroke-width: 1.0;"/><polygon fill="#A80036" points="404.785,159.244,394.961,158.5444,400.0832,160.945,397.6827,166.0673,404.785,159.244" style="stroke: #A80036; stroke-width: 1.0;"/><!--link silica to silica_l106--><path d="M455.075,178.55 C466.928,195.862 481.669,217.392 492.969,233.895 " fill="none" id="silica-silica_l106" style="stroke: #A80036; stroke-width: 1.0;"/><polygon fill="#A80036" points="452.127,174.245,453.9102,183.9311,454.9514,178.3709,460.5116,179.4121,452.127,174.245" style="stroke: #A80036; stroke-width: 1.0;"/><!--link silica_linux to silica_rpi--><path d="M109.593,291.442 C86.2862,333.327 48.5,412.491 48.5,485.5 C48.5,485.5 48.5,485.5 48.5,600.5 C48.5,672.445 49.0222,757.387 49.3119,798.969 " fill="none" id="silica_linux-silica_rpi" style="stroke: #A80036; stroke-width: 1.0;"/><polygon fill="#A80036" points="112.08,287.014,104.1831,292.8995,109.63,291.3726,111.1569,296.8195,112.08,287.014" style="stroke: #A80036; stroke-width: 1.0;"/><!--link silica_cortexm to silica_cortexm_3--><path d="M311.48,290.02 C282.529,307.581 245.729,329.902 217.714,346.895 " fill="none" id="silica_cortexm-silica_cortexm_3" style="stroke: #A80036; stroke-width: 1.0;"/><polygon fill="#A80036" points="316.056,287.245,306.2863,288.4915,311.7807,289.8376,310.4345,295.332,316.056,287.245" style="stroke: #A80036; stroke-width: 1.0;"/><!--link silica_cortexm to silica_cortexm_4--><path d="M358.5,292.434 C358.5,309.591 358.5,330.672 358.5,346.895 " fill="none" id="silica_cortexm-silica_cortexm_4" style="stroke: #A80036; stroke-width: 1.0;"/><polygon fill="#A80036" points="358.5,287.245,354.5,296.245,358.5,292.245,362.5,296.245,358.5,287.245" style="stroke: #A80036; stroke-width: 1.0;"/><!--link silica_cortexm_3 to silica_stm32f2--><path d="M175.221,405.434 C175.067,422.591 174.877,443.672 174.731,459.895 " fill="none" id="silica_cortexm_3-silica_stm32f2" style="stroke: #A80036; stroke-width: 1.0;"/><polygon fill="#A80036" points="175.268,400.245,171.1884,409.2092,175.2237,405.2448,179.1881,409.2801,175.268,400.245" style="stroke: #A80036; stroke-width: 1.0;"/><!--link silica_cortexm_4 to silica_atsam4e--><path d="M353.762,405.434 C351.135,422.591 347.906,443.672 345.421,459.895 " fill="none" id="silica_cortexm_4-silica_atsam4e" style="stroke: #A80036; stroke-width: 1.0;"/><polygon fill="#A80036" points="354.557,400.245,349.2404,408.5356,353.7999,405.1874,357.1482,409.7469,354.557,400.245" style="stroke: #A80036; stroke-width: 1.0;"/><!--link silica_stm32f2 to silica_stm32f2x7--><path d="M175.057,518.434 C175.366,535.591 175.746,556.672 176.039,572.895 " fill="none" id="silica_stm32f2-silica_stm32f2x7" style="stroke: #A80036; stroke-width: 1.0;"/><polygon fill="#A80036" points="174.964,513.245,171.1266,522.3155,175.054,518.2442,179.1253,522.1716,174.964,513.245" style="stroke: #A80036; stroke-width: 1.0;"/><!--link silica_stm32f2x7 to silica_stm32f207zg--><path d="M180.123,631.434 C182.132,648.591 184.601,669.672 186.501,685.895 " fill="none" id="silica_stm32f2x7-silica_stm32f207zg" style="stroke: #A80036; stroke-width: 1.0;"/><polygon fill="#A80036" points="179.515,626.245,176.5888,635.6491,180.0965,631.2111,184.5345,634.7188,179.515,626.245" style="stroke: #A80036; stroke-width: 1.0;"/><!--link silica_stm32f207zg to silica_nucleo_f207zg--><path d="M197.86,744.434 C202.497,761.591 208.195,782.672 212.58,798.895 " fill="none" id="silica_stm32f207zg-silica_nucleo_f207zg" style="stroke: #A80036; stroke-width: 1.0;"/><polygon fill="#A80036" points="196.458,739.245,194.9441,748.9768,197.7622,744.0719,202.6671,746.8901,196.458,739.245" style="stroke: #A80036; stroke-width: 1.0;"/><!--link silica_atsam4e to silica_atsam4e8e--><path d="M347.631,518.434 C351.031,535.591 355.21,556.672 358.425,572.895 " fill="none" id="silica_atsam4e-silica_atsam4e8e" style="stroke: #A80036; stroke-width: 1.0;"/><polygon fill="#A80036" points="346.603,513.245,344.428,522.8507,347.5745,518.1497,352.2755,521.2963,346.603,513.245" style="stroke: #A80036; stroke-width: 1.0;"/><!--link silica_atsam4e8e to silica_duet--><path d="M363.5,631.434 C363.5,648.591 363.5,669.672 363.5,685.895 " fill="none" id="silica_atsam4e8e-silica_duet" style="stroke: #A80036; stroke-width: 1.0;"/><polygon fill="#A80036" points="363.5,626.245,359.5,635.245,363.5,631.245,367.5,635.245,363.5,626.245" style="stroke: #A80036; stroke-width: 1.0;"/><!--link silica_l106 to silica_esp8266--><path d="M510.5,292.439 C510.5,336.969 510.5,418.321 510.5,459.76 " fill="none" id="silica_l106-silica_esp8266" style="stroke: #A80036; stroke-width: 1.0;"/><polygon fill="#A80036" points="510.5,287.196,506.5,296.196,510.5,292.196,514.5,296.196,510.5,287.196" style="stroke: #A80036; stroke-width: 1.0;"/><!--link silica to silica_demo_blinky--><path d="M468.8,161.342 C500.879,174.937 548.131,199.261 577.5,234 C620.156,284.454 631.5,306.431 631.5,372.5 C631.5,372.5 631.5,372.5 631.5,713.5 C631.5,814.92 517.11,879.4298 437.797,911.969 " fill="none" id="silica-silica_demo_blinky" style="stroke: #A80036; stroke-width: 1.0;"/><polygon fill="#A80036" points="464.181,159.414,470.9461,166.5717,468.7953,161.3397,474.0273,159.1889,464.181,159.414" style="stroke: #A80036; stroke-width: 1.0;"/><!--link silica_nucleo_f207zg to silica_demo_blinky--><path d="M257.063,855.455 C279.756,872.9476 308.42,895.0422 330.283,911.895 " fill="none" id="silica_nucleo_f207zg-silica_demo_blinky" style="stroke: #A80036; stroke-width: 1.0; stroke-dasharray: 7.0,7.0;"/><polygon fill="#A80036" points="252.898,852.245,257.5836,860.9079,256.8579,855.2978,262.468,854.5721,252.898,852.245" style="stroke: #A80036; stroke-width: 1.0;"/><!--link silica_duet to silica_demo_blinky--><path d="M363.5,744.439 C363.5,788.969 363.5,870.3209 363.5,911.76 " fill="none" id="silica_duet-silica_demo_blinky" style="stroke: #A80036; stroke-width: 1.0; stroke-dasharray: 7.0,7.0;"/><polygon fill="#A80036" points="363.5,739.196,359.5,748.196,363.5,744.196,367.5,748.196,363.5,739.196" style="stroke: #A80036; stroke-width: 1.0;"/><!--link silica_esp8266 to silica_demo_blinky--><path d="M501.111,518.278 C486.562,565.765 457.531,659.706 431.5,739 C411.048,801.299 385.739,874.1254 372.514,911.8754 " fill="none" id="silica_esp8266-silica_demo_blinky" style="stroke: #A80036; stroke-width: 1.0; stroke-dasharray: 7.0,7.0;"/><polygon fill="#A80036" points="502.643,513.276,496.1829,520.7102,501.1789,518.0568,503.8323,523.0528,502.643,513.276" style="stroke: #A80036; stroke-width: 1.0;"/><!--link silica_rpi to silica_demo_blinky--><path d="M97.9896,846.785 C102.5419,848.586 107.098,850.35 111.5,852 C168.711,873.4463 234.065,895.5523 283.879,911.9127 " fill="none" id="silica_rpi-silica_demo_blinky" style="stroke: #A80036; stroke-width: 1.0; stroke-dasharray: 7.0,7.0;"/><polygon fill="#A80036" points="93.0589,844.819,99.9379,851.8674,97.7034,846.6705,102.9003,844.4361,93.0589,844.819" style="stroke: #A80036; stroke-width: 1.0;"/><!--
@startuml
package silica_linux {}
package silica_rpi {}
package silica_core_sync {}
package silica_core_allocator {}
package silica {}
package silica_cortexm {}
package silica_cortexm_3 {}
package silica_cortexm_4 {}
package silica_stm32f2 {}
package silica_stm32f2x7 {}
package silica_stm32f207zg {}
package silica_nucleo_f207zg {}
package silica_atsam4e {}
package silica_atsam4e8e {}
package silica_l106 {}
package silica_esp8266 {}
package silica_duet {}


silica_core_allocator <- - silica
silica_core_sync <- - silica

silica <- - silica_cortexm
silica <- - silica_linux
silica <- - silica_l106

silica_linux <- - silica_rpi

silica_cortexm <- - silica_cortexm_3
silica_cortexm <- - silica_cortexm_4

silica_cortexm_3 <- - silica_stm32f2

silica_cortexm_4 <- - silica_atsam4e

silica_stm32f2 <- - silica_stm32f2x7
silica_stm32f2x7 <- - silica_stm32f207zg
silica_stm32f207zg <- - silica_nucleo_f207zg

silica_atsam4e <- - silica_atsam4e8e
silica_atsam4e8e <- - silica_duet

silica_l106 <- - silica_esp8266

package silica_demo_blinky {}
silica <- - silica_demo_blinky
silica_nucleo_f207zg <.. silica_demo_blinky
silica_duet <.. silica_demo_blinky
silica_esp8266 <.. silica_demo_blinky
silica_rpi <.. silica_demo_blinky
@enduml

PlantUML version 1.2018.02(Fri Mar 09 17:20:44 UTC 2018)
(GPL source distribution)
Java Runtime: Java(TM) SE Runtime Environment
JVM: Java HotSpot(TM) 64-Bit Server VM
Java Version: 1.7.0_25-b15
Operating System: Linux
Default Encoding: UTF-8
Language: en
Country: US
--></g></svg>